<?xml version="1.0" encoding="UTF-8" standalone="no"?>
<!-- Created with Inkscape (http://www.inkscape.org/) -->

<svg
   version="1.1"
   id="svg2"
   xml:space="preserve"
   width="816"
   height="1056"
   fill="#3454D1"
   viewBox="0 0 816 1056"
   sodipodi:docname="My Sign.ai"
   xmlns:inkscape="http://www.inkscape.org/namespaces/inkscape"
   xmlns:sodipodi="http://sodipodi.sourceforge.net/DTD/sodipodi-0.dtd"
   xmlns="http://www.w3.org/2000/svg"
   xmlns:svg="http://www.w3.org/2000/svg"><defs
     id="defs6"><clipPath
       clipPathUnits="userSpaceOnUse"
       id="clipPath16"><path
         d="M 0,792 H 612 V 0 H 0 Z"
         id="path14" /></clipPath></defs><sodipodi:namedview
     id="namedview4"
     pagecolor="#ffffff"
     bordercolor="#666666"
     borderopacity="1.0"
     inkscape:pageshadow="2"
     inkscape:pageopacity="0.0"
     inkscape:pagecheckerboard="0" /><g
     id="g8"
     inkscape:groupmode="layer"
     inkscape:label="My Sign"
     transform="matrix(1.3333333,0,0,-1.3333333,0,1056)"><g
       id="g10"><g
         id="g12"
         clip-path="url(#clipPath16)"><g
           id="g18"
           transform="translate(299.2798,575.7192)"><path
             d="m 0,0 c 1.125,-0.773 2.408,-1.144 3.677,-1.144 2.068,0 4.102,0.985 5.362,2.818 l 35.319,51.373 c 1.804,-13.019 4.164,-29.79 5.112,-35.334 0.636,-3.716 3.615,-6.321 7.246,-6.335 h 0.034 c 3.759,0 7.493,2.219 16.36,13.808 5.564,7.272 12.171,17.059 18.603,27.558 7.553,12.326 25.495,43.108 28.99,62.675 0.631,3.534 -1.722,6.91 -5.256,7.541 -3.532,0.632 -6.911,-1.721 -7.541,-5.256 C 103.853,95.01 74.547,47.907 60.687,30.382 58.416,46.001 54.998,71.113 54.953,71.44 L 52.686,88.108 -1.674,9.039 C -3.708,6.081 -2.958,2.034 0,0"
             style="fill:#3454D1;fill-opacity:1;fill-rule:nonzero;stroke:none"
             id="path20" /></g><g
           id="g22"
           transform="translate(20.6572,286.5889)"><path
             d="m 0,0 c -1.917,1.931 -4.286,5.358 -3.171,12.966 10.365,20.322 35.744,34.472 71.612,39.889 55.86,8.441 122.39,-6.777 151.644,-34.111 -0.314,-0.632 -0.629,-1.265 -0.941,-1.894 C 191.927,14.172 162.558,9.274 133.848,4.481 75.52,-5.256 15.207,-15.325 0,0 m 255.317,5.911 0.45,0.018 c 2.719,0.201 5.39,0.407 8.025,0.617 l -6.538,-12.143 c -2.624,3.739 -5.439,7.537 -8.473,11.4 2.208,0.061 4.386,0.098 6.536,0.108 m 23.956,1.965 c 6.456,0.598 12.627,1.227 18.529,1.89 L 284.681,-57.94 c -3.921,11.171 -9.973,24.836 -19.306,40.004 z M 307.646,60.569 300.4,23.18 c -4.403,-0.522 -8.975,-1.025 -13.698,-1.506 z m 68.008,-17.525 c 1.419,0.194 2.768,0.289 4.013,0.289 0.944,0 1.829,-0.055 2.638,-0.16 -6.522,-4.277 -16.872,-8.114 -31.013,-11.505 6.435,5.912 15.923,10.217 24.362,11.376 M 212.354,3.061 c -19.841,-40.618 -35.996,-76.694 -45.699,-103.962 -1.115,-3.134 0.15,-6.723 3.129,-8.205 0.951,-0.473 1.945,-0.693 2.918,-0.693 2.674,0 5.179,1.663 6.125,4.326 10.127,28.512 27.45,66.866 48.717,110.04 1.722,0.145 3.436,0.284 5.135,0.407 6.821,-8.095 12.636,-15.982 17.598,-23.527 L 214.17,-85.608 c -1.701,-3.162 -0.519,-7.104 2.642,-8.805 3.161,-1.703 7.102,-0.519 8.805,2.641 l 32.51,60.376 c 18.866,-33.365 20.706,-57.355 20.727,-57.683 l 0.77,-12.829 c 0.342,-5.723 8.564,-6.265 9.655,-0.637 l 22.082,113.954 c 6.911,0.904 13.388,1.862 19.451,2.88 0.918,-8.906 6.438,-19.827 22.739,-31.008 -1.683,-5.945 -9.407,-13.924 -17.9,-20.807 -5.528,0.62 -10.518,0.381 -14.022,-3.307 -4.31,-4.539 -2.931,-11.089 -2.478,-13.241 l 1.903,-9.038 7.865,4.841 c 1.856,1.143 5.778,3.64 10.427,7.083 9.771,-1.534 24.127,-3.68 35.179,5.809 3.025,0.357 3.634,-0.207 4.619,-1.122 6.595,-6.127 13.5,-5.651 30.571,2.22 11.789,2.91 19.141,-0.113 27.639,-3.601 10.739,-4.409 22.911,-9.407 43.204,-1.967 l 4.255,1.571 0.007,4.532 c 0.005,2.852 2.736,17.486 7.079,37.954 -1.278,-24.351 -0.24,-47.477 4.886,-65.568 0.979,-3.454 4.569,-5.465 8.026,-4.483 3.454,0.979 5.46,4.572 4.482,8.026 -18.38,64.871 20.952,206.284 21.352,207.704 l 8.425,29.97 -19.713,-24.094 c -5.166,-6.313 -14.627,-38.381 -28.12,-95.314 -8.126,-34.284 -16.812,-74.485 -18.93,-89.341 -13.209,-3.866 -21.052,-0.646 -30.016,3.036 -9.415,3.865 -20.086,8.249 -36.388,4.02 l -0.571,-0.148 -0.535,-0.248 c -12.237,-5.681 -15.49,-5.527 -16.027,-5.434 -0.172,0.127 -0.518,0.448 -0.778,0.689 -3.305,3.071 -7.382,5.919 -17.543,4.126 l -2.017,-0.356 -1.45,-1.448 c -3.785,-3.786 -8.717,-4.905 -13.925,-4.905 h -0.036 c 7.991,7.977 14.591,17.492 13.797,26.708 l -0.276,3.213 -2.726,1.724 c -9.302,5.881 -19.791,14.678 -20.129,24.576 28.932,5.865 46.383,13.423 54.282,23.131 l 2.716,3.338 -2.012,3.804 c -3.885,7.341 -12.916,10.618 -24.787,8.989 -16.219,-2.228 -34.794,-13.064 -41.028,-28.047 -5.853,-1.039 -12.146,-2.025 -18.879,-2.958 L 336.635,141.825 271.148,20.206 c -5.205,-0.453 -10.578,-0.885 -16.118,-1.296 -5.42,-0.03 -11.007,-0.22 -16.733,-0.545 -0.821,0.93 -1.659,1.862 -2.506,2.794 86.665,172.892 227.195,409.612 229.015,412.672 1.835,3.085 0.821,7.074 -2.265,8.909 -3.086,1.834 -7.073,0.821 -8.909,-2.265 C 451.823,437.434 313.302,204.095 226.107,30.783 192.611,59.36 125.071,74.562 66.499,65.71 25.785,59.56 -3.257,42.551 -15.277,17.818 l -0.399,-0.821 -0.157,-0.899 c -1.835,-10.492 0.387,-18.989 6.605,-25.255 19.945,-20.097 77.997,-10.406 145.216,0.816 25.656,4.283 51.844,8.649 76.366,11.402"
             style="fill:#3454D1;fill-opacity:1;fill-rule:nonzero;stroke:none"
             id="path24" /></g><g
           id="g26"
           transform="translate(368.3242,164.5352)"><path
             d="m 0,0 c -1.542,-1.545 -2.134,-3.67 -1.799,-5.671 -0.435,-0.082 -0.873,-0.163 -1.308,-0.245 -4.482,3.607 -10.544,8.829 -10.044,11.088 0.136,0.612 1.964,5.669 25.474,12.169 C 9.788,11.429 4.342,4.358 0,0 m 238.251,19.339 c -0.321,3.576 -3.492,6.204 -7.056,5.891 C 149.062,17.842 79.756,8.935 15.093,-2.581 c 6.039,7.496 13.731,19.59 11.096,30.132 l -1.554,6.223 -6.244,-1.473 c -28.73,-6.78 -41.958,-14.052 -44.234,-24.317 -1.438,-6.488 1.823,-12.045 6.648,-17.022 -32.619,-6.542 -66.398,-14.565 -100.618,-23.903 -11.38,-3.105 -22.895,-6.771 -34.031,-10.316 -24.757,-7.881 -50.356,-16.03 -75.957,-18.481 -5.578,-0.535 -10.891,-0.317 -14.677,0.21 0.772,0.43 1.671,0.904 2.719,1.419 3.221,1.585 4.549,5.48 2.964,8.702 -1.584,3.22 -5.478,4.545 -8.701,2.964 -4.437,-2.183 -16.222,-7.979 -13.675,-16.964 2.299,-8.111 14.786,-9.68 24.097,-9.68 3.542,0 6.625,0.227 8.512,0.407 26.983,2.584 53.255,10.948 78.662,19.035 11.008,3.505 22.391,7.128 33.508,10.163 37.498,10.231 74.432,18.85 109.875,25.671 3.633,-2.911 7.972,-6.584 8.667,-8.525 -0.885,-1.145 -6.127,-5.748 -34.936,-10.601 -3.54,-0.596 -5.926,-3.95 -5.33,-7.49 0.535,-3.174 3.287,-5.421 6.402,-5.421 0.359,0 0.723,0.03 1.088,0.091 30.292,5.104 43.041,10.791 45.472,20.288 1.416,5.533 -1.12,10.295 -5.237,14.689 66.505,12.132 137.7,21.412 222.75,29.063 3.577,0.321 6.214,3.481 5.892,7.056"
             style="fill:#3454D1;fill-opacity:1;fill-rule:nonzero;stroke:none"
             id="path28" /></g><path
           d="M 227.227,841.566 H 0 V 792 h 227.227 z"
           style="fill:#3454D1;fill-opacity:1;fill-rule:nonzero;stroke:none"
           id="path30" /></g></g></g></svg>
